<svg width="56" height="56" viewBox="0 0 56 56" fill="none" xmlns="http://www.w3.org/2000/svg">
<rect x="0.322754" y="0.5" width="55" height="55" rx="5" fill="#CAE1FE"/>
<g clip-path="url(#clip0_121_286)">
<path d="M32.1463 14.3713V17.5662C32.1463 19.2231 33.4894 20.5662 35.1463 20.5662H38.3412M21.615 31.717L23.2106 33.3126C24.3822 34.4842 26.2817 34.4842 27.4532 33.3126L32.7658 28.0001M19.0393 41.6289H35.3412C36.998 41.6289 38.3412 40.2857 38.3412 38.6289V19.9504C38.3412 19.1548 38.0251 18.3917 37.4625 17.8291L34.8834 15.25C34.3208 14.6874 33.5578 14.3713 32.7621 14.3713H19.0374C17.3804 14.3713 16.0372 15.7147 16.0374 17.3716L16.0393 38.6291C16.0395 40.2859 17.3826 41.6289 19.0393 41.6289Z" stroke="#5A8BF1" stroke-width="2"/>
</g>
<defs>
<clipPath id="clip0_121_286">
<rect x="12.3228" y="13.1323" width="29.7355" height="29.7355" rx="5" fill="white"/>
</clipPath>
</defs>
</svg>
