<?xml version="1.0" encoding="iso-8859-1"?>
<!-- Uploaded to: SVG Repo, www.svgrepo.com, Generator: SVG Repo Mixer Tools -->
<!DOCTYPE svg PUBLIC "-//W3C//DTD SVG 1.1//EN" "http://www.w3.org/Graphics/SVG/1.1/DTD/svg11.dtd">
<svg fill="#000000" height="800px" width="800px" version="1.1" id="Capa_1" xmlns="http://www.w3.org/2000/svg" xmlns:xlink="http://www.w3.org/1999/xlink" 
	 viewBox="0 0 481.262 481.262" xml:space="preserve">
<g>
	<path d="M453.29,236.381c-2.347,0-4.25,1.903-4.25,4.25c0,114.917-93.492,208.409-208.409,208.409c-2.347,0-4.25,1.903-4.25,4.25
		s1.903,4.25,4.25,4.25c57.938,0,112.409-22.563,153.377-63.531c40.969-40.969,63.531-95.439,63.531-153.377
		C457.54,238.284,455.637,236.381,453.29,236.381z"/>
	<path d="M240.631,32.222c2.347,0,4.25-1.903,4.25-4.25s-1.903-4.25-4.25-4.25c-57.938,0-112.409,22.562-153.377,63.531
		c-40.969,40.969-63.531,95.439-63.531,153.377c0,2.347,1.903,4.25,4.25,4.25s4.25-1.903,4.25-4.25
		C32.222,125.714,125.714,32.222,240.631,32.222z"/>
	<path d="M135.525,236.381c-2.347,0-4.25,1.903-4.25,4.25c0,60.299,49.057,109.356,109.356,109.356c2.347,0,4.25-1.903,4.25-4.25
		c0-2.347-1.903-4.25-4.25-4.25c-55.612,0-100.856-45.244-100.856-100.856C139.775,238.284,137.872,236.381,135.525,236.381z"/>
	<path d="M437.594,102.405l29.256-29.256c1.067-1.067,1.488-2.62,1.107-4.081c-0.382-1.46-1.509-2.608-2.962-3.017l-37.229-10.461
		l-10.461-37.229c-0.408-1.453-1.556-2.58-3.016-2.962c-1.459-0.381-3.013,0.04-4.081,1.106l-28.896,28.896
		C340.176,15.691,291.619,0,240.631,0C176.356,0,115.929,25.03,70.479,70.479C25.03,115.929,0,176.356,0,240.631
		s25.03,124.702,70.479,170.152c45.45,45.449,105.877,70.479,170.152,70.479s124.702-25.03,170.152-70.479
		c45.449-45.45,70.479-105.877,70.479-170.152C481.262,190.738,466.171,143.029,437.594,102.405z M455.707,72.271l-26.661,26.661
		c-0.001,0.001-0.002,0.001-0.002,0.001l-27.261,27.261l-30.141-8.47l53.923-53.923L455.707,72.271z M230.759,238.874l13.498,13.499
		c0.797,0.797,1.878,1.245,3.005,1.245h0.002h0c0.846,0,1.666-0.253,2.358-0.716c0.231-0.154,0.448-0.332,0.647-0.532l16.287-16.321
		c0.265,1.503,0.398,3.033,0.398,4.584c0,14.516-11.809,26.325-26.325,26.325c-14.516,0-26.325-11.809-26.325-26.325
		c0-14.516,11.809-26.325,26.325-26.325c2.562,0,5.105,0.376,7.543,1.105l-17.418,17.455
		C229.099,234.526,229.101,237.215,230.759,238.874z M240.631,205.806c-19.203,0-34.825,15.622-34.825,34.825
		s15.622,34.825,34.825,34.825s34.825-15.622,34.825-34.825c0-3.964-0.669-7.826-1.972-11.523l33.409-33.479
		c9.075,13.297,13.847,28.756,13.847,45.003c0,44.172-35.937,80.109-80.109,80.109s-80.109-35.936-80.109-80.109
		s35.936-80.109,80.109-80.109c16.911,0,33.447,5.398,47.064,15.285l-32.942,33.012
		C250.322,206.852,245.503,205.806,240.631,205.806z M240.631,152.022c-48.859,0-88.609,39.75-88.609,88.609
		s39.75,88.609,88.609,88.609s88.609-39.75,88.609-88.609c0-18.519-5.605-36.111-16.247-51.116l22.993-23.041
		c16.442,21.129,25.446,47.281,25.446,74.158c0,66.61-54.191,120.801-120.801,120.801S119.83,307.241,119.83,240.631
		S174.021,119.83,240.631,119.83c27.751,0,54.577,9.535,76.042,26.94l-22.907,22.955
		C278.501,158.283,259.783,152.022,240.631,152.022z M333.307,157.125L333.307,157.125l-67.806,67.948
		c-0.001,0.001-0.001,0.001-0.002,0.002l-18.24,18.278l-7.488-7.488l118.538-118.786l1.103,3.924
		c0.367,1.438,1.52,2.535,2.942,2.941l3.174,0.892L333.307,157.125z M322.702,140.728c-23.089-18.983-52.073-29.399-82.071-29.399
		c-71.297,0-129.301,58.004-129.301,129.301s58.004,129.301,129.301,129.301s129.301-58.004,129.301-129.301
		c0-29.125-9.886-57.451-27.903-80.213l32.877-32.946l24.945,7.01c21.021,31.464,32.125,68.134,32.125,106.149
		c0,105.508-85.837,191.346-191.346,191.346S49.285,346.139,49.285,240.631S135.123,49.285,240.631,49.285
		c38.817,0,76.125,11.541,108.012,33.394l7.028,25.011L322.702,140.728z M384.75,53.985c0.001,0,0.001-0.002,0.002-0.002
		l26.333-26.333l8.47,30.141l-53.923,53.923l-6.28-22.348l-2.19-7.794L384.75,53.985z M240.631,472.762
		C112.633,472.762,8.5,368.629,8.5,240.631S112.633,8.5,240.631,8.5c48.728,0,95.156,14.846,134.596,42.986l-23.211,23.211
		C319.025,52.5,280.594,40.785,240.631,40.785c-110.195,0-199.846,89.65-199.846,199.846s89.65,199.846,199.846,199.846
		s199.846-89.65,199.846-199.846c0-38.901-11.136-76.453-32.24-108.869l23.259-23.259c27.013,38.92,41.266,84.495,41.266,132.128
		C472.762,368.629,368.629,472.762,240.631,472.762z"/>
</g>
</svg>