<?xml version="1.0" encoding="iso-8859-1"?>
<!-- Uploaded to: SVG Repo, www.svgrepo.com, Generator: SVG Repo Mixer Tools -->
<!DOCTYPE svg PUBLIC "-//W3C//DTD SVG 1.1//EN" "http://www.w3.org/Graphics/SVG/1.1/DTD/svg11.dtd">
<svg fill="#000000" version="1.1" id="Capa_1" xmlns="http://www.w3.org/2000/svg" xmlns:xlink="http://www.w3.org/1999/xlink" 
	 width="800px" height="800px" viewBox="0 0 282.146 282.146"
	 xml:space="preserve">
<g>
	<g>
		<path d="M141.073,40.5c-33.497,0-60.75,27.253-60.75,60.75c0,33.497,27.253,60.75,60.75,60.75c33.497,0,60.75-27.253,60.75-60.75
			C201.823,67.753,174.57,40.5,141.073,40.5z M141.073,141.75c-18.607,0-33.75-15.143-33.75-33.75
			c0-18.607,15.143-33.75,33.75-33.75c18.604,0,33.75,15.143,33.75,33.75C174.823,126.607,159.677,141.75,141.073,141.75z"/>
		<path d="M242.323,101.25C242.323,45.42,196.903,0,141.073,0c-55.83,0-101.25,45.42-101.25,101.25
			c0,37.06,20.076,69.441,49.863,87.086l-3.958,88.172c-0.005,0.158,0.066,0.295,0.071,0.453c0.016,0.359,0.074,0.707,0.166,1.065
			c0.093,0.354,0.195,0.707,0.356,1.018c0.065,0.148,0.071,0.301,0.147,0.433c0.145,0.243,0.34,0.443,0.517,0.654
			c0.087,0.11,0.158,0.222,0.253,0.332c0.428,0.453,0.915,0.796,1.448,1.07c0.119,0.068,0.246,0.111,0.364,0.147
			c0.517,0.211,1.052,0.343,1.608,0.386c0.077,0.01,0.14,0.058,0.222,0.068c0.082,0,0.166,0,0.248,0c0.604,0,1.21-0.132,1.798-0.343
			c0.161-0.068,0.309-0.116,0.464-0.19c0.158-0.079,0.319-0.115,0.469-0.2l19.934-11.718l16.042,11.454
			c0.103,0.074,0.216,0.105,0.324,0.153c0.195,0.126,0.396,0.211,0.604,0.311c0.427,0.201,0.854,0.338,1.303,0.412
			c0.129,0.021,0.232,0.095,0.361,0.11c0.179,0.011,0.356,0.021,0.535,0.021h0.005l0,0c0.005,0,0.005,0,0.01,0
			c0.794,0,1.529-0.211,2.215-0.533c0.201-0.095,0.361-0.222,0.546-0.337c0.501-0.307,0.934-0.676,1.311-1.129
			c0.092-0.116,0.232-0.147,0.319-0.274c0.071-0.105,0.082-0.222,0.145-0.337c0.206-0.333,0.34-0.676,0.473-1.034
			c0.107-0.316,0.221-0.601,0.269-0.907c0.016-0.115,0.082-0.2,0.092-0.316l2.809-27.622l13.945,29.379
			c0.116,0.231,0.264,0.4,0.396,0.611c0.101,0.143,0.185,0.306,0.301,0.453c0.411,0.496,0.875,0.929,1.413,1.239
			c0.026,0.011,0.037,0.032,0.059,0.043c0.247,0.147,0.511,0.221,0.785,0.332c0.158,0.068,0.327,0.158,0.507,0.211
			c0.475,0.121,0.954,0.2,1.429,0.2h-0.016c0,0,0,0,0.005,0c0.006,0,0.006,0,0.011,0c0.733,0,1.429-0.189,2.094-0.475
			c0.073-0.037,0.143-0.026,0.211-0.058c0.042-0.021,0.063-0.063,0.116-0.085c0.559-0.284,1.044-0.653,1.486-1.118
			c0.111-0.105,0.169-0.221,0.264-0.337c0.158-0.211,0.343-0.391,0.475-0.622l9.145-15.726l23.234,5.315
			c0.401,0.095,0.802,0.121,1.203,0.121c0.005,0,0.01,0,0.016,0l0,0c0,0,0,0,0.005,0c0.644,0,1.255-0.11,1.867-0.343
			c0.021,0,0.031,0,0.053-0.011c0.105-0.042,0.169-0.121,0.274-0.163c0.49-0.222,0.949-0.501,1.354-0.854
			c0.185-0.152,0.333-0.343,0.485-0.527c0.264-0.311,0.496-0.622,0.691-0.986c0.137-0.253,0.227-0.495,0.316-0.77
			c0.068-0.189,0.189-0.348,0.231-0.549c0.032-0.158-0.011-0.332,0.011-0.484c0.042-0.359,0.063-0.723,0.021-1.087
			c-0.021-0.369-0.074-0.732-0.164-1.065c-0.058-0.158-0.031-0.326-0.09-0.475l-25.217-66.455
			C215.628,180.584,242.323,144.018,242.323,101.25z M128.546,266.952l-11.232-8.01c-0.01-0.011-0.016-0.011-0.026-0.021
			l-0.071-0.068c-0.185-0.111-0.396-0.143-0.583-0.264c-0.417-0.222-0.828-0.464-1.287-0.564c-0.361-0.101-0.722-0.068-1.094-0.079
			c-0.324-0.011-0.638-0.074-0.968-0.021c-0.464,0.063-0.892,0.264-1.324,0.454c-0.206,0.1-0.427,0.11-0.625,0.211l-0.087,0.053
			c0,0-0.005,0-0.005,0.011l-14.278,8.411l3.288-73.232c10.774,4.767,22.534,7.646,34.874,8.363L128.546,266.952z M189.599,256.289
			l-17.281-3.955c-0.09-0.021-0.179,0.011-0.269-0.01c-0.364-0.063-0.718-0.043-1.081-0.032c-0.354,0.011-0.691,0-1.028,0.063
			c-0.312,0.09-0.591,0.222-0.886,0.348c-0.338,0.148-0.676,0.264-0.981,0.475c-0.258,0.18-0.464,0.422-0.69,0.654
			c-0.27,0.264-0.543,0.517-0.754,0.854c-0.053,0.073-0.132,0.116-0.18,0.2l-5.99,10.283l-14.502-30.555
			c-0.628-1.318-1.725-2.246-2.996-2.731l3.017-29.626c7.521-0.369,14.818-1.529,21.827-3.459L189.599,256.289z M141.073,172.801
			c-39.453,0-71.55-32.095-71.55-71.551c0-39.453,32.097-71.55,71.55-71.55c39.456,0,71.55,32.097,71.55,71.55
			C212.623,140.706,180.529,172.801,141.073,172.801z"/>
		<path d="M163.137,211.603c-2.674,1.329-3.755,4.582-2.426,7.245l10.178,20.472c0.938,1.914,2.853,3.012,4.841,3.012
			c0.802,0,1.624-0.18,2.395-0.564c2.668-1.329,3.754-4.567,2.426-7.235l-10.184-20.482
			C169.054,211.37,165.805,210.273,163.137,211.603z"/>
	</g>
</g>
</svg>