<svg width="21" height="24" viewBox="0 0 21 24" fill="none" xmlns="http://www.w3.org/2000/svg">
<path d="M15.2841 5.51599C17.752 5.42641 20.6718 5.08142 20.9244 8.96105C21.165 12.6579 20.7382 16.7276 20.9194 20.4643C20.7392 22.1445 19.8153 23.5269 18.3569 23.677C13.2742 23.3272 7.7829 24.1273 2.74853 23.677C1.13616 23.5329 0.195113 22.1106 0.0813813 20.2271C0.29274 16.5557 -0.187347 12.4666 0.0874201 8.84484C0.362187 5.22305 3.3353 5.42762 5.72266 5.51478C5.5425 3.52957 6.37686 1.26959 8.1875 1.03475C9.23524 0.899178 11.7705 0.897967 12.8183 1.03475C14.641 1.27322 15.4522 3.51142 15.2831 5.51478L15.2841 5.51599ZM13.3718 5.51478C13.3034 4.86717 13.4091 3.63005 12.773 3.39037C11.4414 3.40368 9.8975 3.18701 8.58607 3.32984C7.51518 3.44726 7.74566 4.51007 7.63495 5.51478H13.3718ZM5.72266 7.81471H2.75356C2.42948 7.81471 1.90913 8.64148 1.99368 9.07968C2.2463 12.6107 1.67362 16.7675 1.99871 20.2222C2.03394 20.5951 2.31374 21.3722 2.65292 21.3722H5.72266V7.81471ZM13.3718 7.81471H7.63495V21.3722H13.3718V7.81471ZM15.2841 21.3722H18.3539C18.6931 21.3722 18.9729 20.5951 19.0081 20.2222C19.3332 16.7675 18.7615 12.6107 19.0131 9.07968C19.0977 8.64148 18.5773 7.81471 18.2532 7.81471H15.2841V21.3722Z" fill="#93C5FD"/>
</svg>
