<svg width="35" height="31" viewBox="0 0 35 31" fill="none" xmlns="http://www.w3.org/2000/svg">
<g filter="url(#filter0_d_3187_3006)">
<path d="M28.5743 11.9761L26.0377 13.2437C25.7024 16.1016 26.7131 18.2686 24.3989 20.3123C21.1311 23.1992 13.5015 23.1919 10.3335 20.14C8.16806 18.0528 9.22787 16.0454 8.86642 13.2437C8.63254 12.7069 5.494 11.5627 4.77437 10.8899C3.51994 9.71667 3.8405 7.19607 5.36806 6.46528C8.85661 4.99281 12.3484 2.58282 15.8206 1.18833C16.5697 0.887307 17.3008 0.533698 18.1152 0.814772C21.625 2.76416 26.0867 4.24388 29.4264 6.40543C30.2589 6.94401 30.9687 7.62222 30.9998 8.79548C31.0063 9.06023 30.8526 9.37757 30.8559 9.70035C30.8886 12.2881 30.8771 14.8794 30.8281 17.4671C30.5402 18.8598 28.5727 18.3266 28.5727 17.5052V11.9743L28.5743 11.9761ZM28.4108 8.71387C25.1332 7.40824 22.0961 5.39357 18.8725 3.96462C18.4293 3.76877 17.8437 3.41516 17.376 3.43693C17.008 3.45506 16.4078 3.79597 16.0365 3.96281C13.0468 5.30652 9.77086 7.08908 6.8253 8.62864C6.63231 8.72838 6.42624 8.60326 6.49657 8.98044C10.2108 10.6614 13.7337 12.9155 17.5346 14.3462C20.8923 12.7922 24.2599 11.2018 27.5423 9.46824C27.701 9.38482 28.6806 9.02033 28.4124 8.71387H28.4108ZM23.6678 14.3335C21.8916 14.8558 19.1571 17.1189 17.3711 17.0681C15.5851 17.0174 13.0075 14.8159 11.2379 14.3335V16.963C11.2379 18.2287 13.7141 19.275 14.6643 19.5108C16.8346 20.0475 20.8236 19.8988 22.6767 18.4028C22.8909 18.2305 23.6678 17.3583 23.6678 17.1443V14.3335Z" fill="#93C5FD"/>
</g>
<defs>
<filter id="filter0_d_3187_3006" x="0" y="0.712158" width="35" height="29.7415" filterUnits="userSpaceOnUse" color-interpolation-filters="sRGB">
<feFlood flood-opacity="0" result="BackgroundImageFix"/>
<feColorMatrix in="SourceAlpha" type="matrix" values="0 0 0 0 0 0 0 0 0 0 0 0 0 0 0 0 0 0 127 0" result="hardAlpha"/>
<feOffset dy="4"/>
<feGaussianBlur stdDeviation="2"/>
<feComposite in2="hardAlpha" operator="out"/>
<feColorMatrix type="matrix" values="0 0 0 0 0 0 0 0 0 0 0 0 0 0 0 0 0 0 0.25 0"/>
<feBlend mode="normal" in2="BackgroundImageFix" result="effect1_dropShadow_3187_3006"/>
<feBlend mode="normal" in="SourceGraphic" in2="effect1_dropShadow_3187_3006" result="shape"/>
</filter>
</defs>
</svg>
